<svg width="16" height="16" viewBox="0 0 16 16" fill="none" xmlns="http://www.w3.org/2000/svg">
<g clip-path="url(#clip0_59_593)">
<path d="M11.2 4.0002C11.2 3.78802 11.2843 3.58454 11.4343 3.43451C11.5843 3.28448 11.7878 3.2002 12 3.2002C12.2122 3.2002 12.4157 3.28448 12.5657 3.43451C12.7157 3.58454 12.8 3.78802 12.8 4.0002C12.8 4.21237 12.7157 4.41585 12.5657 4.56588C12.4157 4.71591 12.2122 4.8002 12 4.8002C11.7878 4.8002 11.5843 4.71591 11.4343 4.56588C11.2843 4.41585 11.2 4.21237 11.2 4.0002Z" fill="#090909"/>
<path fill-rule="evenodd" clip-rule="evenodd" d="M8 4.2002C6.99217 4.2002 6.02563 4.60055 5.31299 5.31319C4.60035 6.02583 4.2 6.99237 4.2 8.0002C4.2 9.00802 4.60035 9.97456 5.31299 10.6872C6.02563 11.3998 6.99217 11.8002 8 11.8002C9.00782 11.8002 9.97436 11.3998 10.687 10.6872C11.3996 9.97456 11.8 9.00802 11.8 8.0002C11.8 6.99237 11.3996 6.02583 10.687 5.31319C9.97436 4.60055 9.00782 4.2002 8 4.2002ZM5.4 8.0002C5.4 7.31063 5.67393 6.64931 6.16152 6.16172C6.64911 5.67412 7.31043 5.4002 8 5.4002C8.68956 5.4002 9.35088 5.67412 9.83847 6.16172C10.3261 6.64931 10.6 7.31063 10.6 8.0002C10.6 8.68976 10.3261 9.35108 9.83847 9.83867C9.35088 10.3263 8.68956 10.6002 8 10.6002C7.31043 10.6002 6.64911 10.3263 6.16152 9.83867C5.67393 9.35108 5.4 8.68976 5.4 8.0002Z" fill="#090909"/>
<path fill-rule="evenodd" clip-rule="evenodd" d="M12.2064 0.666139C9.41071 0.356079 6.5893 0.356079 3.7936 0.666139C2.184 0.846139 0.884004 2.11414 0.695204 3.73174C0.36409 6.56744 0.36409 9.43204 0.695204 12.2677C0.884004 13.8853 2.1832 15.1533 3.7936 15.3333C6.58934 15.6427 9.41067 15.6427 12.2064 15.3333C13.816 15.1533 15.116 13.8853 15.3048 12.2677C15.6359 9.43204 15.6359 6.56744 15.3048 3.73174C15.116 2.11414 13.8168 0.846139 12.2064 0.666139ZM3.9264 1.85814C6.63384 1.55791 9.36617 1.55791 12.0736 1.85814C13.1376 1.97814 13.9896 2.81734 14.1136 3.87174C14.4345 6.61438 14.4345 9.38509 14.1136 12.1277C14.0495 12.6438 13.8132 13.1231 13.4431 13.4883C13.0729 13.8536 12.5905 14.0833 12.0736 14.1405C9.36617 14.4408 6.63384 14.4408 3.9264 14.1405C3.40956 14.0833 2.92709 13.8536 2.55693 13.4883C2.18677 13.1231 1.95054 12.6438 1.8864 12.1277C1.56549 9.38509 1.56549 6.61438 1.8864 3.87174C1.95054 3.35571 2.18677 2.87636 2.55693 2.51114C2.92709 2.14592 3.40956 1.91535 3.9264 1.85814Z" fill="#090909"/>
</g>
<defs>
<clipPath id="clip0_59_593">
<rect width="16" height="16" fill="white"/>
</clipPath>
</defs>
</svg>
