<svg width="47" height="71" viewBox="0 0 47 71" fill="none" xmlns="http://www.w3.org/2000/svg">
<path d="M43.8151 67.4066L43.9949 66.9401L43.9949 66.9401L43.8151 67.4066ZM46.7028 68.8985C46.9552 68.7865 47.069 68.4911 46.9571 68.2387L45.1323 64.1253C45.0203 63.8728 44.7249 63.759 44.4725 63.871C44.2201 63.9829 44.1062 64.2783 44.2182 64.5308L45.8402 68.1871L42.1839 69.8092C41.9314 69.9211 41.8176 70.2165 41.9296 70.469C42.0415 70.7214 42.3369 70.8352 42.5894 70.7232L46.7028 68.8985ZM1.49914 1.4673C1.51336 1.19152 1.30132 0.956439 1.02554 0.942224C0.749766 0.928008 0.514682 1.14005 0.500467 1.41582L1.49914 1.4673ZM0.439347 2.9288C0.431273 3.20483 0.648491 3.43513 0.924515 3.44321C1.20054 3.45128 1.43085 3.23406 1.43892 2.95804L0.439347 2.9288ZM1.4182 5.93671C1.41396 5.6606 1.18669 5.4402 0.910581 5.44444C0.634471 5.44869 0.414079 5.67596 0.41832 5.95206L1.4182 5.93671ZM0.532347 8.97316C0.548937 9.24881 0.785839 9.45881 1.06148 9.44222C1.33713 9.42563 1.54713 9.18873 1.53054 8.91309L0.532347 8.97316ZM1.77607 11.8813C1.74714 11.6067 1.50106 11.4075 1.22644 11.4364C0.951814 11.4653 0.752643 11.7114 0.781575 11.986L1.77607 11.8813ZM1.16582 14.9852C1.20706 15.2583 1.46183 15.4462 1.73488 15.4049C2.00792 15.3637 2.19584 15.1089 2.15461 14.8359L1.16582 14.9852ZM2.66562 17.7712C2.61215 17.5003 2.34919 17.324 2.07827 17.3774C1.80735 17.4309 1.63107 17.6939 1.68454 17.9648L2.66562 17.7712ZM2.33657 20.9178C2.40215 21.186 2.67276 21.3503 2.94101 21.2847C3.20925 21.2191 3.37354 20.9485 3.30795 20.6803L2.33657 20.9178ZM4.08026 23.5574C4.0027 23.2924 3.72498 23.1404 3.45995 23.218C3.19493 23.2955 3.04296 23.5732 3.12052 23.8383L4.08026 23.5574ZM4.03471 26.7205C4.12408 26.9817 4.40834 27.1211 4.66962 27.0317C4.9309 26.9424 5.07026 26.6581 4.98089 26.3968L4.03471 26.7205ZM6.00791 29.1929C5.90692 28.9359 5.61669 28.8095 5.35968 28.9104C5.10267 29.0114 4.97619 29.3017 5.07719 29.5587L6.00791 29.1929ZM6.24574 32.3473C6.35813 32.5995 6.65372 32.7129 6.90596 32.6005C7.15819 32.4881 7.27155 32.1925 7.15915 31.9403L6.24574 32.3473ZM8.43232 34.6336C8.30874 34.3866 8.00838 34.2866 7.76143 34.4102C7.51448 34.5337 7.41446 34.8341 7.53802 35.0811L8.43232 34.6336ZM8.95128 37.7543C9.08577 37.9955 9.39031 38.082 9.63148 37.9475C9.87267 37.813 9.95916 37.5085 9.82467 37.2673L8.95128 37.7543ZM11.3333 39.8361C11.1882 39.6012 10.8801 39.5284 10.6451 39.6735C10.4102 39.8186 10.3374 40.1267 10.4825 40.3617L11.3333 39.8361ZM12.1287 42.898C12.2842 43.1262 12.5953 43.1851 12.8235 43.0297C13.0517 42.8742 13.1107 42.5631 12.9552 42.3349L12.1287 42.898ZM14.6871 44.7588C14.5216 44.5377 14.2082 44.4927 13.9872 44.6583C13.7661 44.8238 13.7211 45.1372 13.8866 45.3582L14.6871 44.7588ZM15.7528 47.7375C15.928 47.9509 16.2431 47.9819 16.4565 47.8066C16.6699 47.6314 16.7009 47.3163 16.5257 47.1029L15.7528 47.7375ZM18.4672 49.3624C18.2826 49.1571 17.9664 49.1402 17.7611 49.3248C17.5557 49.5095 17.5389 49.8256 17.7235 50.0309L18.4672 49.3624ZM19.7946 52.2337C19.9883 52.4306 20.3048 52.4333 20.5017 52.2397C20.6986 52.046 20.7013 51.7295 20.5077 51.5326L19.7946 52.2337ZM22.6433 53.6091C22.4411 53.4211 22.1247 53.4326 21.9367 53.6349C21.7487 53.8371 21.7602 54.1535 21.9624 54.3415L22.6433 53.6091ZM24.2226 56.3501C24.4331 56.5289 24.7487 56.5031 24.9274 56.2927C25.1062 56.0822 25.0804 55.7666 24.87 55.5879L24.2226 56.3501ZM27.1833 57.4648C26.965 57.2957 26.6509 57.3355 26.4818 57.5538C26.3127 57.7721 26.3526 58.0862 26.5708 58.2553L27.1833 57.4648ZM29.0024 60.0532C29.2281 60.2124 29.5401 60.1584 29.6992 59.9328C29.8584 59.7071 29.8044 59.3951 29.5788 59.236L29.0024 60.0532ZM32.0516 60.8979C31.819 60.7491 31.5098 60.817 31.361 61.0496C31.2121 61.2822 31.28 61.5914 31.5126 61.7402L32.0516 60.8979ZM34.0954 63.3124C34.3345 63.4506 34.6403 63.3689 34.7786 63.1299C34.9168 62.8908 34.8351 62.585 34.5961 62.4467L34.0954 63.3124ZM37.2071 63.8796C36.9621 63.7522 36.6602 63.8475 36.5328 64.0925C36.4054 64.3375 36.5008 64.6394 36.7458 64.7668L37.2071 63.8796ZM39.4586 66.1011C39.7091 66.2174 40.0064 66.1087 40.1227 65.8582C40.239 65.6077 40.1303 65.3104 39.8798 65.1941L39.4586 66.1011ZM42.6088 66.3881C42.3534 66.283 42.0612 66.405 41.9562 66.6603C41.8512 66.9157 41.9731 67.2079 42.2285 67.3129L42.6088 66.3881ZM44.3065 68.1319C44.5642 68.2312 44.8535 68.1028 44.9528 67.8451C45.0522 67.5875 44.9238 67.2981 44.6661 67.1988L44.3065 68.1319ZM46.0086 67.7162C45.7509 67.6169 45.4615 67.7452 45.3622 68.0029C45.2629 68.2606 45.3913 68.55 45.649 68.6493L46.0086 67.7162ZM0.999804 1.44156L0.500467 1.41582C0.474433 1.92087 0.454076 2.42522 0.439347 2.9288L0.939133 2.94342L1.43892 2.95804C1.45343 2.46187 1.47349 1.96493 1.49914 1.4673L0.999804 1.44156ZM0.918261 5.94438L0.41832 5.95206C0.43385 6.96305 0.471989 7.97028 0.532347 8.97316L1.03144 8.94312L1.53054 8.91309C1.47108 7.92507 1.4335 6.93274 1.4182 5.93671L0.918261 5.94438ZM1.27882 11.9337L0.781575 11.986C0.887455 12.991 1.01567 13.991 1.16582 14.9852L1.66021 14.9105L2.15461 14.8359C2.00669 13.8564 1.88038 12.8714 1.77607 11.8813L1.27882 11.9337ZM2.17508 17.868L1.68454 17.9648C1.8801 18.9558 2.09758 19.9403 2.33657 20.9178L2.82226 20.799L3.30795 20.6803C3.07252 19.7173 2.85827 18.7474 2.66562 17.7712L2.17508 17.868ZM3.60039 23.6978L3.12052 23.8383C3.40404 24.807 3.70891 25.768 4.03471 26.7205L4.5078 26.5586L4.98089 26.3968C4.65992 25.4585 4.35957 24.5118 4.08026 23.5574L3.60039 23.6978ZM5.54255 29.3758L5.07719 29.5587C5.44616 30.4976 5.83581 31.4274 6.24574 32.3473L6.70244 32.1438L7.15915 31.9403C6.7553 31.034 6.37141 30.118 6.00791 29.1929L5.54255 29.3758ZM7.98517 34.8573L7.53802 35.0811C7.98931 35.983 8.46054 36.8743 8.95128 37.7543L9.38798 37.5108L9.82467 37.2673C9.34119 36.4003 8.87693 35.5221 8.43232 34.6336L7.98517 34.8573ZM10.9079 40.0989L10.4825 40.3617C11.0123 41.2192 11.5612 42.0649 12.1287 42.898L12.542 42.6164L12.9552 42.3349C12.396 41.5142 11.8552 40.681 11.3333 39.8361L10.9079 40.0989ZM14.2869 45.0585L13.8866 45.3582C14.4906 46.1648 15.1128 46.9581 15.7528 47.7375L16.1392 47.4202L16.5257 47.1029C15.8951 46.335 15.2821 45.5534 14.6871 44.7588L14.2869 45.0585ZM18.0953 49.6967L17.7235 50.0309C18.3968 50.7799 19.0873 51.5144 19.7946 52.2337L20.1512 51.8831L20.5077 51.5326C19.8108 50.8239 19.1305 50.1003 18.4672 49.3624L18.0953 49.6967ZM22.3029 53.9753L21.9624 54.3415C22.6997 55.0269 23.4533 55.6967 24.2226 56.3501L24.5463 55.969L24.87 55.5879C24.112 54.9442 23.3696 54.2844 22.6433 53.6091L22.3029 53.9753ZM26.8771 57.86L26.5708 58.2553C27.3663 58.8716 28.177 59.4711 29.0024 60.0532L29.2906 59.6446L29.5788 59.236C28.7656 58.6625 27.9669 58.0719 27.1833 57.4648L26.8771 57.86ZM31.7821 61.3191L31.5126 61.7402C32.3596 62.2822 33.2206 62.8065 34.0954 63.3124L34.3458 62.8796L34.5961 62.4467C33.7343 61.9483 32.886 61.4319 32.0516 60.8979L31.7821 61.3191ZM36.9764 64.3232L36.7458 64.7668C37.6372 65.2303 38.5416 65.6753 39.4586 66.1011L39.6692 65.6476L39.8798 65.1941C38.9763 64.7746 38.0853 64.3362 37.2071 63.8796L36.9764 64.3232ZM42.4187 66.8505L42.2285 67.3129C42.6944 67.5045 43.1634 67.6913 43.6352 67.8732L43.8151 67.4066L43.9949 66.9401C43.5299 66.7609 43.0679 66.5768 42.6088 66.3881L42.4187 66.8505ZM43.8151 67.4066L43.6352 67.8732L44.3065 68.1319L44.4863 67.6653L44.6661 67.1988L43.9949 66.9401L43.8151 67.4066ZM45.8288 68.1827L45.649 68.6493L46.3202 68.908L46.5 68.4414L46.6798 67.9749L46.0086 67.7162L45.8288 68.1827ZM43.8151 67.4066L43.9949 66.9401L43.9949 66.9401L43.8151 67.4066ZM46.7028 68.8985C46.9552 68.7865 47.069 68.4911 46.9571 68.2387L45.1323 64.1253C45.0203 63.8728 44.7249 63.759 44.4725 63.871C44.2201 63.9829 44.1062 64.2783 44.2182 64.5308L45.8402 68.1871L42.1839 69.8092C41.9314 69.9211 41.8176 70.2165 41.9296 70.469C42.0415 70.7214 42.3369 70.8352 42.5894 70.7232L46.7028 68.8985ZM1.49914 1.4673C1.51336 1.19152 1.30132 0.956439 1.02554 0.942224C0.749766 0.928008 0.514682 1.14005 0.500467 1.41582L1.49914 1.4673ZM0.439347 2.9288C0.431273 3.20483 0.648491 3.43513 0.924515 3.44321C1.20054 3.45128 1.43085 3.23406 1.43892 2.95804L0.439347 2.9288ZM1.4182 5.93671C1.41396 5.6606 1.18669 5.4402 0.910581 5.44444C0.634471 5.44869 0.414079 5.67596 0.41832 5.95206L1.4182 5.93671ZM0.532347 8.97316C0.548937 9.24881 0.785839 9.45881 1.06148 9.44222C1.33713 9.42563 1.54713 9.18873 1.53054 8.91309L0.532347 8.97316ZM1.77607 11.8813C1.74714 11.6067 1.50106 11.4075 1.22644 11.4364C0.951814 11.4653 0.752643 11.7114 0.781575 11.986L1.77607 11.8813ZM1.16582 14.9852C1.20706 15.2583 1.46183 15.4462 1.73488 15.4049C2.00792 15.3637 2.19584 15.1089 2.15461 14.8359L1.16582 14.9852ZM2.66562 17.7712C2.61215 17.5003 2.34919 17.324 2.07827 17.3774C1.80735 17.4309 1.63107 17.6939 1.68454 17.9648L2.66562 17.7712ZM2.33657 20.9178C2.40215 21.186 2.67276 21.3503 2.94101 21.2847C3.20925 21.2191 3.37354 20.9485 3.30795 20.6803L2.33657 20.9178ZM4.08026 23.5574C4.0027 23.2924 3.72498 23.1404 3.45995 23.218C3.19493 23.2955 3.04296 23.5732 3.12052 23.8383L4.08026 23.5574ZM4.03471 26.7205C4.12408 26.9817 4.40834 27.1211 4.66962 27.0317C4.9309 26.9424 5.07026 26.6581 4.98089 26.3968L4.03471 26.7205ZM6.00791 29.1929C5.90692 28.9359 5.61669 28.8095 5.35968 28.9104C5.10267 29.0114 4.97619 29.3017 5.07719 29.5587L6.00791 29.1929ZM6.24574 32.3473C6.35813 32.5995 6.65372 32.7129 6.90596 32.6005C7.15819 32.4881 7.27155 32.1925 7.15915 31.9403L6.24574 32.3473ZM8.43232 34.6336C8.30874 34.3866 8.00838 34.2866 7.76143 34.4102C7.51448 34.5337 7.41446 34.8341 7.53802 35.0811L8.43232 34.6336ZM8.95128 37.7543C9.08577 37.9955 9.39031 38.082 9.63148 37.9475C9.87267 37.813 9.95916 37.5085 9.82467 37.2673L8.95128 37.7543ZM11.3333 39.8361C11.1882 39.6012 10.8801 39.5284 10.6451 39.6735C10.4102 39.8186 10.3374 40.1267 10.4825 40.3617L11.3333 39.8361ZM12.1287 42.898C12.2842 43.1262 12.5953 43.1851 12.8235 43.0297C13.0517 42.8742 13.1107 42.5631 12.9552 42.3349L12.1287 42.898ZM14.6871 44.7588C14.5216 44.5377 14.2082 44.4927 13.9872 44.6583C13.7661 44.8238 13.7211 45.1372 13.8866 45.3582L14.6871 44.7588ZM15.7528 47.7375C15.928 47.9509 16.2431 47.9819 16.4565 47.8066C16.6699 47.6314 16.7009 47.3163 16.5257 47.1029L15.7528 47.7375ZM18.4672 49.3624C18.2826 49.1571 17.9664 49.1402 17.7611 49.3248C17.5557 49.5095 17.5389 49.8256 17.7235 50.0309L18.4672 49.3624ZM19.7946 52.2337C19.9883 52.4306 20.3048 52.4333 20.5017 52.2397C20.6986 52.046 20.7013 51.7295 20.5077 51.5326L19.7946 52.2337ZM22.6433 53.6091C22.4411 53.4211 22.1247 53.4326 21.9367 53.6349C21.7487 53.8371 21.7602 54.1535 21.9624 54.3415L22.6433 53.6091ZM24.2226 56.3501C24.4331 56.5289 24.7487 56.5031 24.9274 56.2927C25.1062 56.0822 25.0804 55.7666 24.87 55.5879L24.2226 56.3501ZM27.1833 57.4648C26.965 57.2957 26.6509 57.3355 26.4818 57.5538C26.3127 57.7721 26.3526 58.0862 26.5708 58.2553L27.1833 57.4648ZM29.0024 60.0532C29.2281 60.2124 29.5401 60.1584 29.6992 59.9328C29.8584 59.7071 29.8044 59.3951 29.5788 59.236L29.0024 60.0532ZM32.0516 60.8979C31.819 60.7491 31.5098 60.817 31.361 61.0496C31.2121 61.2822 31.28 61.5914 31.5126 61.7402L32.0516 60.8979ZM34.0954 63.3124C34.3345 63.4506 34.6403 63.3689 34.7786 63.1299C34.9168 62.8908 34.8351 62.585 34.5961 62.4467L34.0954 63.3124ZM37.2071 63.8796C36.9621 63.7522 36.6602 63.8475 36.5328 64.0925C36.4054 64.3375 36.5008 64.6394 36.7458 64.7668L37.2071 63.8796ZM39.4586 66.1011C39.7091 66.2174 40.0064 66.1087 40.1227 65.8582C40.239 65.6077 40.1303 65.3104 39.8798 65.1941L39.4586 66.1011ZM42.6088 66.3881C42.3534 66.283 42.0612 66.405 41.9562 66.6603C41.8512 66.9157 41.9731 67.2079 42.2285 67.3129L42.6088 66.3881ZM44.3065 68.1319C44.5642 68.2312 44.8535 68.1028 44.9528 67.8451C45.0522 67.5875 44.9238 67.2981 44.6661 67.1988L44.3065 68.1319ZM46.0086 67.7162C45.7509 67.6169 45.4615 67.7452 45.3622 68.0029C45.2629 68.2606 45.3913 68.55 45.649 68.6493L46.0086 67.7162ZM0.999804 1.44156L0.500467 1.41582C0.474433 1.92087 0.454076 2.42522 0.439347 2.9288L0.939133 2.94342L1.43892 2.95804C1.45343 2.46187 1.47349 1.96493 1.49914 1.4673L0.999804 1.44156ZM0.918261 5.94438L0.41832 5.95206C0.43385 6.96305 0.471989 7.97028 0.532347 8.97316L1.03144 8.94312L1.53054 8.91309C1.47108 7.92507 1.4335 6.93274 1.4182 5.93671L0.918261 5.94438ZM1.27882 11.9337L0.781575 11.986C0.887455 12.991 1.01567 13.991 1.16582 14.9852L1.66021 14.9105L2.15461 14.8359C2.00669 13.8564 1.88038 12.8714 1.77607 11.8813L1.27882 11.9337ZM2.17508 17.868L1.68454 17.9648C1.8801 18.9558 2.09758 19.9403 2.33657 20.9178L2.82226 20.799L3.30795 20.6803C3.07252 19.7173 2.85827 18.7474 2.66562 17.7712L2.17508 17.868ZM3.60039 23.6978L3.12052 23.8383C3.40404 24.807 3.70891 25.768 4.03471 26.7205L4.5078 26.5586L4.98089 26.3968C4.65992 25.4585 4.35957 24.5118 4.08026 23.5574L3.60039 23.6978ZM5.54255 29.3758L5.07719 29.5587C5.44616 30.4976 5.83581 31.4274 6.24574 32.3473L6.70244 32.1438L7.15915 31.9403C6.7553 31.034 6.37141 30.118 6.00791 29.1929L5.54255 29.3758ZM7.98517 34.8573L7.53802 35.0811C7.98931 35.983 8.46054 36.8743 8.95128 37.7543L9.38798 37.5108L9.82467 37.2673C9.34119 36.4003 8.87693 35.5221 8.43232 34.6336L7.98517 34.8573ZM10.9079 40.0989L10.4825 40.3617C11.0123 41.2192 11.5612 42.0649 12.1287 42.898L12.542 42.6164L12.9552 42.3349C12.396 41.5142 11.8552 40.681 11.3333 39.8361L10.9079 40.0989ZM14.2869 45.0585L13.8866 45.3582C14.4906 46.1648 15.1128 46.9581 15.7528 47.7375L16.1392 47.4202L16.5257 47.1029C15.8951 46.335 15.2821 45.5534 14.6871 44.7588L14.2869 45.0585ZM18.0953 49.6967L17.7235 50.0309C18.3968 50.7799 19.0873 51.5144 19.7946 52.2337L20.1512 51.8831L20.5077 51.5326C19.8108 50.8239 19.1305 50.1003 18.4672 49.3624L18.0953 49.6967ZM22.3029 53.9753L21.9624 54.3415C22.6997 55.0269 23.4533 55.6967 24.2226 56.3501L24.5463 55.969L24.87 55.5879C24.112 54.9442 23.3696 54.2844 22.6433 53.6091L22.3029 53.9753ZM26.8771 57.86L26.5708 58.2553C27.3663 58.8716 28.177 59.4711 29.0024 60.0532L29.2906 59.6446L29.5788 59.236C28.7656 58.6625 27.9669 58.0719 27.1833 57.4648L26.8771 57.86ZM31.7821 61.3191L31.5126 61.7402C32.3596 62.2822 33.2206 62.8065 34.0954 63.3124L34.3458 62.8796L34.5961 62.4467C33.7343 61.9483 32.886 61.4319 32.0516 60.8979L31.7821 61.3191ZM36.9764 64.3232L36.7458 64.7668C37.6372 65.2303 38.5416 65.6753 39.4586 66.1011L39.6692 65.6476L39.8798 65.1941C38.9763 64.7746 38.0853 64.3362 37.2071 63.8796L36.9764 64.3232ZM42.4187 66.8505L42.2285 67.3129C42.6944 67.5045 43.1634 67.6913 43.6352 67.8732L43.8151 67.4066L43.9949 66.9401C43.5299 66.7609 43.0679 66.5768 42.6088 66.3881L42.4187 66.8505ZM43.8151 67.4066L43.6352 67.8732L44.3065 68.1319L44.4863 67.6653L44.6661 67.1988L43.9949 66.9401L43.8151 67.4066ZM45.8288 68.1827L45.649 68.6493L46.3202 68.908L46.5 68.4414L46.6798 67.9749L46.0086 67.7162L45.8288 68.1827Z" fill="white"/>
</svg>
