<svg width="50" height="58" viewBox="0 0 50 58" fill="none" xmlns="http://www.w3.org/2000/svg">
<path d="M36.0854 1.68119C39.3232 1.1409 43.2315 1.66995 45.8262 4.45074L45.8248 4.45096C48.5514 7.36942 48.4184 11.2665 47.1021 14.4084C45.7547 17.631 43.4454 20.2545 41.5084 22.6464C39.2648 25.4167 36.9789 28.1844 34.5774 30.8616C32.5047 33.1728 30.3063 35.5482 27.8014 37.5917C27.0032 38.2443 26.014 39.0244 24.9104 39.6172C23.8031 40.212 22.4791 40.6764 21.0196 40.584L21.0194 40.5827C17.5915 40.3687 15.2026 36.822 15.9529 33.6185C16.2522 32.3365 16.8779 31.1653 17.5411 30.1484C18.2007 29.1372 18.97 28.1744 19.5745 27.384L19.5751 27.3832C23.9336 21.6934 28.9897 16.4948 33.719 11.3064L34.246 10.7198C35.3173 9.52755 36.8507 9.74156 37.7275 10.3717C38.1774 10.6952 38.597 11.2125 38.7313 11.8963C38.8766 12.6365 38.6447 13.3643 38.1405 13.9268L38.1399 13.9276C33.5108 19.082 28.8345 24.0564 24.6186 29.4158C23.9001 30.3298 23.2158 31.102 22.5269 32.0392C21.9474 32.8277 21.4977 33.5653 21.2382 34.2577L21.1385 34.5521L21.1381 34.5542C21.0574 34.8216 21.1256 35.0645 21.2272 35.1973C21.2735 35.2577 21.3215 35.2902 21.3658 35.3073C21.4056 35.3226 21.4879 35.3429 21.6369 35.3142C22.1499 35.212 22.7314 34.8287 23.5068 34.2663L23.508 34.2647C27.5987 31.3081 30.9376 27.1573 34.3345 23.0826L35.6303 21.5154C36.9206 19.9419 38.1974 18.3512 39.4752 16.7529C40.3338 15.6772 41.1989 14.5303 41.8332 13.3302C42.4678 12.1295 42.8131 10.9812 42.7525 9.89317L42.7531 9.89238C42.6874 8.72076 42.0727 7.94634 41.0962 7.43814C40.0607 6.89925 38.6666 6.70744 37.3855 6.86689L37.3814 6.86754C34.4759 7.2219 32.6116 8.8592 30.3414 11.2993C25.4289 16.5907 20.6984 22.0511 16.2124 27.7003C13.6526 30.9237 10.964 34.0103 9.1765 37.4212L9.00467 37.7586C8.15698 39.4665 7.51002 41.4678 7.384 43.3871C7.2588 45.2943 7.64876 47.0135 8.74434 48.3548L8.97246 48.6175C10.4053 50.1713 12.2328 50.5653 14.3199 50.2734C16.4611 49.974 18.7205 48.962 20.6793 47.8831C27.2636 44.2562 33.2785 39.5194 38.3107 33.9447L38.3119 33.9431C39.4346 32.7029 41.0353 32.9242 41.9579 33.5876C42.4307 33.9276 42.8678 34.4676 43.0077 35.1769C43.1586 35.9425 42.9214 36.6997 42.3931 37.2901C38.9749 41.1295 35.1852 44.7274 31.0079 47.8051L31.0066 47.8053C27.4071 50.4531 23.1474 53.3878 18.6495 54.9262L18.6476 54.9272C15.6736 55.9403 12.36 56.109 9.43632 55.1569C6.47172 54.1914 3.94065 52.0751 2.69168 48.6525C0.745798 43.3299 2.54768 37.5366 5.2852 33.2738L5.28498 33.2725C8.79864 27.808 13.0903 22.79 17.2021 17.9636L17.2033 17.962C20.2952 14.3393 23.4777 10.7915 26.7415 7.32056L26.744 7.31876C29.263 4.64925 31.973 2.36808 36.0854 1.68119Z" fill="#4EE39B" stroke="#E7FDF2" stroke-width="3"/>
</svg>
